G04 #@! TF.GenerationSoftware,KiCad,Pcbnew,(5.1.12)-1*
G04 #@! TF.CreationDate,2021-12-07T21:11:06+01:00*
G04 #@! TF.ProjectId,zzelia65,7a7a656c-6961-4363-952e-6b696361645f,rev?*
G04 #@! TF.SameCoordinates,Original*
G04 #@! TF.FileFunction,Legend,Bot*
G04 #@! TF.FilePolarity,Positive*
%FSLAX46Y46*%
G04 Gerber Fmt 4.6, Leading zero omitted, Abs format (unit mm)*
G04 Created by KiCad (PCBNEW (5.1.12)-1) date 2021-12-07 21:11:06*
%MOMM*%
%LPD*%
G01*
G04 APERTURE LIST*
%ADD10C,0.120000*%
%ADD11C,0.150000*%
G04 APERTURE END LIST*
D10*
X300800000Y-41250000D02*
X305300000Y-41250000D01*
X299550000Y-45250000D02*
X299550000Y-43750000D01*
X305300000Y-47750000D02*
X300800000Y-47750000D01*
X306550000Y-43750000D02*
X306550000Y-45250000D01*
D11*
X304764285Y-49202380D02*
X305097619Y-48726190D01*
X305335714Y-49202380D02*
X305335714Y-48202380D01*
X304954761Y-48202380D01*
X304859523Y-48250000D01*
X304811904Y-48297619D01*
X304764285Y-48392857D01*
X304764285Y-48535714D01*
X304811904Y-48630952D01*
X304859523Y-48678571D01*
X304954761Y-48726190D01*
X305335714Y-48726190D01*
X303954761Y-49154761D02*
X304050000Y-49202380D01*
X304240476Y-49202380D01*
X304335714Y-49154761D01*
X304383333Y-49059523D01*
X304383333Y-48678571D01*
X304335714Y-48583333D01*
X304240476Y-48535714D01*
X304050000Y-48535714D01*
X303954761Y-48583333D01*
X303907142Y-48678571D01*
X303907142Y-48773809D01*
X304383333Y-48869047D01*
X303526190Y-49154761D02*
X303430952Y-49202380D01*
X303240476Y-49202380D01*
X303145238Y-49154761D01*
X303097619Y-49059523D01*
X303097619Y-49011904D01*
X303145238Y-48916666D01*
X303240476Y-48869047D01*
X303383333Y-48869047D01*
X303478571Y-48821428D01*
X303526190Y-48726190D01*
X303526190Y-48678571D01*
X303478571Y-48583333D01*
X303383333Y-48535714D01*
X303240476Y-48535714D01*
X303145238Y-48583333D01*
X302288095Y-49154761D02*
X302383333Y-49202380D01*
X302573809Y-49202380D01*
X302669047Y-49154761D01*
X302716666Y-49059523D01*
X302716666Y-48678571D01*
X302669047Y-48583333D01*
X302573809Y-48535714D01*
X302383333Y-48535714D01*
X302288095Y-48583333D01*
X302240476Y-48678571D01*
X302240476Y-48773809D01*
X302716666Y-48869047D01*
X301954761Y-48535714D02*
X301573809Y-48535714D01*
X301811904Y-48202380D02*
X301811904Y-49059523D01*
X301764285Y-49154761D01*
X301669047Y-49202380D01*
X301573809Y-49202380D01*
X300716666Y-49202380D02*
X301288095Y-49202380D01*
X301002380Y-49202380D02*
X301002380Y-48202380D01*
X301097619Y-48345238D01*
X301192857Y-48440476D01*
X301288095Y-48488095D01*
M02*
