M48
; DRILL file {KiCad (5.1.12)-1} date 12/02/21 20:27:20
; FORMAT={-:-/ absolute / inch / decimal}
; #@! TF.CreationDate,2021-12-02T20:27:20+01:00
; #@! TF.GenerationSoftware,Kicad,Pcbnew,(5.1.12)-1
; #@! TF.FileFunction,NonPlated,1,2,NPTH
FMAT,2
INCH
T1C0.0689
T2C0.1200
T3C0.1570
%
G90
G05
T1
X2.0812Y-1.75
X2.175Y-4.75
X2.2687Y-2.5
X2.3625Y-3.25
X2.4812Y-1.75
X2.55Y-4.0
X2.575Y-4.75
X2.6687Y-2.5
X2.7625Y-3.25
X2.8312Y-1.75
X2.95Y-4.0
X3.1125Y-4.75
X3.2062Y-2.5
X3.2312Y-1.75
X3.3937Y-3.25
X3.5125Y-4.75
X3.5812Y-1.75
X3.6062Y-2.5
X3.7687Y-4.0
X3.7937Y-3.25
X3.9562Y-2.5
X3.9812Y-1.75
X4.05Y-4.75
X4.1437Y-3.25
X4.1688Y-4.0
X4.3312Y-1.75
X4.3563Y-2.5
X4.45Y-4.75
X4.5187Y-4.0
X4.5438Y-3.25
X4.7062Y-2.5
X4.7313Y-1.75
X4.8937Y-3.25
X4.9188Y-4.0
X5.0812Y-1.75
X5.1063Y-2.5
X5.2687Y-4.0
X5.2938Y-3.25
X5.4562Y-2.5
X5.4813Y-1.75
X5.6437Y-3.25
X5.6688Y-4.0
X5.8312Y-1.75
X5.8563Y-2.5
X6.0187Y-4.0
X6.0438Y-3.25
X6.2062Y-2.5
X6.2313Y-1.75
X6.3937Y-3.25
X6.4188Y-4.0
X6.5812Y-1.75
X6.6063Y-2.5
X6.7687Y-4.0
X6.7938Y-3.25
X6.8625Y-4.75
X6.9562Y-2.5
X6.9813Y-1.75
X7.1437Y-3.25
X7.1688Y-4.0
X7.2625Y-4.75
X7.3312Y-1.75
X7.3563Y-2.5
X7.5187Y-4.0
X7.5438Y-3.25
X7.7062Y-2.5
X7.7313Y-1.75
X7.8937Y-3.25
X7.9188Y-4.0
X8.0812Y-1.75
X8.1062Y-2.5
X8.2687Y-4.0
X8.2937Y-3.25
X8.4562Y-2.5
X8.4812Y-1.75
X8.6437Y-3.25
X8.6687Y-4.0
X8.8312Y-1.75
X8.8562Y-2.5
X9.0187Y-4.0
X9.0437Y-3.25
X9.2062Y-2.5
X9.2312Y-1.75
X9.3937Y-3.25
X9.4187Y-4.0
X9.5812Y-1.75
X9.5812Y-4.75
X9.6062Y-2.5
X9.7687Y-4.0
X9.7937Y-3.25
X9.9562Y-2.5
X9.9812Y-1.75
X9.9812Y-4.75
X10.1437Y-3.25
X10.1687Y-4.0
X10.3312Y-1.75
X10.3312Y-4.75
X10.3562Y-2.5
X10.5187Y-4.0
X10.5437Y-3.25
X10.7062Y-2.5
X10.7312Y-1.75
X10.7312Y-4.75
X10.8937Y-3.25
X10.9187Y-4.0
X11.0812Y-1.75
X11.0812Y-4.75
X11.1062Y-2.5
X11.2937Y-3.25
X11.4562Y-2.5
X11.4812Y-1.75
X11.4812Y-4.75
X11.55Y-4.0
X11.8562Y-2.5
X11.95Y-4.0
X12.0187Y-4.9688
X12.1125Y-3.25
X12.2062Y-1.75
X12.3937Y-2.5
X12.4187Y-4.9688
X12.5125Y-3.25
X12.6062Y-1.75
X12.7687Y-4.2188
X12.7687Y-4.9688
X12.7937Y-2.5
X13.1687Y-4.2188
X13.1687Y-4.9688
X13.5187Y-4.9688
X13.7062Y-1.75
X13.7062Y-2.5
X13.7062Y-3.25
X13.7062Y-4.0
X13.9187Y-4.9688
X14.1062Y-1.75
X14.1062Y-2.5
X14.1062Y-3.25
X14.1062Y-4.0
T2
X2.2812Y-3.725
X3.2188Y-3.725
X5.094Y-4.475
X9.031Y-4.475
X11.8438Y-2.975
X11.9375Y-1.475
X12.7812Y-2.975
X12.875Y-1.475
T3
X2.2812Y-1.75
X2.2812Y-4.325
X2.375Y-4.75
X2.4688Y-2.5
X2.5625Y-3.25
X2.75Y-4.0
X3.0312Y-1.75
X3.2188Y-4.325
X3.3125Y-4.75
X3.4062Y-2.5
X3.5938Y-3.25
X3.7812Y-1.75
X3.9688Y-4.0
X4.1562Y-2.5
X4.25Y-4.75
X4.3438Y-3.25
X4.5312Y-1.75
X4.7188Y-4.0
X4.9062Y-2.5
X5.0938Y-3.25
X5.094Y-5.075
X5.2812Y-1.75
X5.4688Y-4.0
X5.6562Y-2.5
X5.8438Y-3.25
X6.0312Y-1.75
X6.2188Y-4.0
X6.4062Y-2.5
X6.5938Y-3.25
X6.7812Y-1.75
X6.9688Y-4.0
X7.0625Y-4.75
X7.1562Y-2.5
X7.3438Y-3.25
X7.5312Y-1.75
X7.7188Y-4.0
X7.9062Y-2.5
X8.0938Y-3.25
X8.2812Y-1.75
X8.4688Y-4.0
X8.6562Y-2.5
X8.8438Y-3.25
X9.031Y-5.075
X9.0312Y-1.75
X9.2188Y-4.0
X9.4062Y-2.5
X9.5938Y-3.25
X9.7812Y-1.75
X9.7812Y-4.75
X9.9688Y-4.0
X10.1562Y-2.5
X10.3438Y-3.25
X10.5312Y-1.75
X10.5312Y-4.75
X10.7188Y-4.0
X10.9062Y-2.5
X11.0938Y-3.25
X11.2812Y-1.75
X11.2812Y-4.75
X11.6562Y-2.5
X11.75Y-4.0
X11.8438Y-3.575
X11.9375Y-2.075
X12.2188Y-4.9688
X12.3125Y-3.25
X12.4062Y-1.75
X12.5938Y-2.5
X12.7812Y-3.575
X12.875Y-2.075
X12.9688Y-4.2188
X12.9688Y-4.9688
X13.7188Y-4.9688
X13.9062Y-1.75
X13.9062Y-2.5
X13.9062Y-3.25
X13.9062Y-4.0
T0
M30
