%TF.GenerationSoftware,KiCad,Pcbnew,(5.1.12)-1*%
%TF.CreationDate,2021-12-02T20:26:18+01:00*%
%TF.ProjectId,zzelia65,7a7a656c-6961-4363-952e-6b696361645f,rev?*%
%TF.SameCoordinates,Original*%
%TF.FileFunction,Soldermask,Top*%
%TF.FilePolarity,Negative*%
%FSLAX46Y46*%
G04 Gerber Fmt 4.6, Leading zero omitted, Abs format (unit mm)*
G04 Created by KiCad (PCBNEW (5.1.12)-1) date 2021-12-02 20:26:18*
%MOMM*%
%LPD*%
G01*
G04 APERTURE LIST*
%ADD10C,4.400000*%
%ADD11C,1.600000*%
%ADD12R,1.600000X1.600000*%
%ADD13C,1.750000*%
%ADD14C,3.987800*%
%ADD15C,3.048000*%
%ADD16O,1.600000X1.600000*%
G04 APERTURE END LIST*
D10*
%TO.C,REF\u002A\u002A*%
X80168750Y-82550000D03*
%TD*%
%TO.C,REF\u002A\u002A*%
X295275000Y-82550000D03*
%TD*%
%TO.C,REF\u002A\u002A*%
X202406250Y-53975000D03*
%TD*%
%TO.C,REF\u002A\u002A*%
X202406250Y-120650000D03*
%TD*%
%TO.C,REF\u002A\u002A*%
X45243750Y-130968750D03*
%TD*%
%TO.C,REF\u002A\u002A*%
X45243750Y-39687500D03*
%TD*%
%TO.C,REF\u002A\u002A*%
X365918750Y-39687500D03*
%TD*%
%TO.C,REF\u002A\u002A*%
X365918750Y-130968750D03*
%TD*%
D11*
%TO.C,ProMicro1*%
X345598750Y-38417500D03*
X345598750Y-40957500D03*
X345598750Y-43497500D03*
X345598750Y-46037500D03*
X345598750Y-48577500D03*
X345598750Y-51117500D03*
X345598750Y-53657500D03*
X345598750Y-56197500D03*
X345598750Y-58737500D03*
X345598750Y-61277500D03*
X345598750Y-63817500D03*
X345598750Y-66357500D03*
X360838750Y-66357500D03*
X360838750Y-63817500D03*
X360838750Y-61277500D03*
X360838750Y-58737500D03*
X360838750Y-56197500D03*
X360838750Y-53657500D03*
X360838750Y-51117500D03*
X360838750Y-48577500D03*
X360838750Y-46037500D03*
X360838750Y-43497500D03*
X360838750Y-40957500D03*
D12*
X360838750Y-38417500D03*
%TD*%
D13*
%TO.C,K_Z1*%
X105886250Y-101600000D03*
X95726250Y-101600000D03*
D14*
X100806250Y-101600000D03*
%TD*%
D13*
%TO.C,K_Y1*%
X186848750Y-63500000D03*
X176688750Y-63500000D03*
D14*
X181768750Y-63500000D03*
%TD*%
D13*
%TO.C,K_X1*%
X124936250Y-101600000D03*
X114776250Y-101600000D03*
D14*
X119856250Y-101600000D03*
%TD*%
D13*
%TO.C,K_W1*%
X110648750Y-63500000D03*
X100488750Y-63500000D03*
D14*
X105568750Y-63500000D03*
%TD*%
D13*
%TO.C,K_V1*%
X163036250Y-101600000D03*
X152876250Y-101600000D03*
D14*
X157956250Y-101600000D03*
%TD*%
D13*
%TO.C,K_Up1*%
X334486250Y-107156250D03*
X324326250Y-107156250D03*
D14*
X329406250Y-107156250D03*
%TD*%
D13*
%TO.C,K_U1*%
X205898750Y-63500000D03*
X195738750Y-63500000D03*
D14*
X200818750Y-63500000D03*
%TD*%
D13*
%TO.C,K_Tab1*%
X67786250Y-63500000D03*
X57626250Y-63500000D03*
D14*
X62706250Y-63500000D03*
%TD*%
D13*
%TO.C,K_T1*%
X167798750Y-63500000D03*
X157638750Y-63500000D03*
D14*
X162718750Y-63500000D03*
%TD*%
%TO.C,K_Space1*%
X229387400Y-128905000D03*
X129387600Y-128905000D03*
D15*
X229387400Y-113665000D03*
X129387600Y-113665000D03*
D13*
X184467500Y-120650000D03*
X174307500Y-120650000D03*
D14*
X179387500Y-120650000D03*
%TD*%
D13*
%TO.C,K_Slash1*%
X277336250Y-101600000D03*
X267176250Y-101600000D03*
D14*
X272256250Y-101600000D03*
%TD*%
D13*
%TO.C,K_Semi1*%
X267811250Y-82550000D03*
X257651250Y-82550000D03*
D14*
X262731250Y-82550000D03*
%TD*%
D13*
%TO.C,K_S1*%
X115411250Y-82550000D03*
X105251250Y-82550000D03*
D14*
X110331250Y-82550000D03*
%TD*%
D13*
%TO.C,K_RShift1*%
X303530000Y-101600000D03*
X293370000Y-101600000D03*
D14*
X298450000Y-101600000D03*
%TD*%
D13*
%TO.C,K_Right1*%
X353536250Y-126206250D03*
X343376250Y-126206250D03*
D14*
X348456250Y-126206250D03*
%TD*%
D13*
%TO.C,K_RCtrl1*%
X291623750Y-120650000D03*
X281463750Y-120650000D03*
D14*
X286543750Y-120650000D03*
%TD*%
D13*
%TO.C,K_RAlt1*%
X253523750Y-120650000D03*
X243363750Y-120650000D03*
D14*
X248443750Y-120650000D03*
%TD*%
D13*
%TO.C,K_R1*%
X148748750Y-63500000D03*
X138588750Y-63500000D03*
D14*
X143668750Y-63500000D03*
%TD*%
D13*
%TO.C,K_Quote1*%
X286861250Y-82550000D03*
X276701250Y-82550000D03*
D14*
X281781250Y-82550000D03*
%TD*%
D13*
%TO.C,K_Q1*%
X91598750Y-63500000D03*
X81438750Y-63500000D03*
D14*
X86518750Y-63500000D03*
%TD*%
D13*
%TO.C,K_Plus1*%
X291623750Y-44450000D03*
X281463750Y-44450000D03*
D14*
X286543750Y-44450000D03*
%TD*%
D13*
%TO.C,K_P1*%
X263048750Y-63500000D03*
X252888750Y-63500000D03*
D14*
X257968750Y-63500000D03*
%TD*%
D13*
%TO.C,K_Open1*%
X282098750Y-63500000D03*
X271938750Y-63500000D03*
D14*
X277018750Y-63500000D03*
%TD*%
D13*
%TO.C,K_O1*%
X243998750Y-63500000D03*
X233838750Y-63500000D03*
D14*
X238918750Y-63500000D03*
%TD*%
D13*
%TO.C,K_N1*%
X201136250Y-101600000D03*
X190976250Y-101600000D03*
D14*
X196056250Y-101600000D03*
%TD*%
D13*
%TO.C,K_Minus1*%
X272573750Y-44450000D03*
X262413750Y-44450000D03*
D14*
X267493750Y-44450000D03*
%TD*%
D13*
%TO.C,K_M1*%
X220186250Y-101600000D03*
X210026250Y-101600000D03*
D14*
X215106250Y-101600000D03*
%TD*%
D13*
%TO.C,K_LWin1*%
X89217500Y-120650000D03*
X79057500Y-120650000D03*
D14*
X84137500Y-120650000D03*
%TD*%
%TO.C,K_LShift1*%
X81756250Y-109855000D03*
X57943750Y-109855000D03*
D15*
X81756250Y-94615000D03*
X57943750Y-94615000D03*
D13*
X74930000Y-101600000D03*
X64770000Y-101600000D03*
D14*
X69850000Y-101600000D03*
%TD*%
D13*
%TO.C,K_Left1*%
X315436250Y-126206250D03*
X305276250Y-126206250D03*
D14*
X310356250Y-126206250D03*
%TD*%
D13*
%TO.C,K_LCtrl1*%
X65405000Y-120650000D03*
X55245000Y-120650000D03*
D14*
X60325000Y-120650000D03*
%TD*%
D13*
%TO.C,K_LAlt1*%
X113030000Y-120650000D03*
X102870000Y-120650000D03*
D14*
X107950000Y-120650000D03*
%TD*%
D13*
%TO.C,K_L1*%
X248761250Y-82550000D03*
X238601250Y-82550000D03*
D14*
X243681250Y-82550000D03*
%TD*%
D13*
%TO.C,K_K1*%
X229711250Y-82550000D03*
X219551250Y-82550000D03*
D14*
X224631250Y-82550000D03*
%TD*%
D13*
%TO.C,K_J1*%
X210661250Y-82550000D03*
X200501250Y-82550000D03*
D14*
X205581250Y-82550000D03*
%TD*%
D13*
%TO.C,K_Insert1*%
X358298750Y-44450000D03*
X348138750Y-44450000D03*
D14*
X353218750Y-44450000D03*
%TD*%
D13*
%TO.C,K_I1*%
X224948750Y-63500000D03*
X214788750Y-63500000D03*
D14*
X219868750Y-63500000D03*
%TD*%
D13*
%TO.C,K_Home1*%
X358298750Y-63500000D03*
X348138750Y-63500000D03*
D14*
X353218750Y-63500000D03*
%TD*%
D13*
%TO.C,K_H1*%
X191611250Y-82550000D03*
X181451250Y-82550000D03*
D14*
X186531250Y-82550000D03*
%TD*%
D13*
%TO.C,K_G1*%
X172561250Y-82550000D03*
X162401250Y-82550000D03*
D14*
X167481250Y-82550000D03*
%TD*%
D13*
%TO.C,K_Fn1*%
X272573750Y-120650000D03*
X262413750Y-120650000D03*
D14*
X267493750Y-120650000D03*
%TD*%
D13*
%TO.C,K_F1*%
X153511250Y-82550000D03*
X143351250Y-82550000D03*
D14*
X148431250Y-82550000D03*
%TD*%
D13*
%TO.C,K_Esc1*%
X63023750Y-44450000D03*
X52863750Y-44450000D03*
D14*
X57943750Y-44450000D03*
%TD*%
%TO.C,K_Enter1*%
X324643750Y-90805000D03*
X300831250Y-90805000D03*
D15*
X324643750Y-75565000D03*
X300831250Y-75565000D03*
D13*
X317817500Y-82550000D03*
X307657500Y-82550000D03*
D14*
X312737500Y-82550000D03*
%TD*%
D13*
%TO.C,K_End1*%
X358298750Y-82550000D03*
X348138750Y-82550000D03*
D14*
X353218750Y-82550000D03*
%TD*%
D13*
%TO.C,K_E1*%
X129698750Y-63500000D03*
X119538750Y-63500000D03*
D14*
X124618750Y-63500000D03*
%TD*%
D13*
%TO.C,K_Down1*%
X334486250Y-126206250D03*
X324326250Y-126206250D03*
D14*
X329406250Y-126206250D03*
%TD*%
D13*
%TO.C,K_Dot1*%
X258286250Y-101600000D03*
X248126250Y-101600000D03*
D14*
X253206250Y-101600000D03*
%TD*%
D13*
%TO.C,K_Del1*%
X358298750Y-101600000D03*
X348138750Y-101600000D03*
D14*
X353218750Y-101600000D03*
%TD*%
D13*
%TO.C,K_D1*%
X134461250Y-82550000D03*
X124301250Y-82550000D03*
D14*
X129381250Y-82550000D03*
%TD*%
D13*
%TO.C,K_Comma1*%
X239236250Y-101600000D03*
X229076250Y-101600000D03*
D14*
X234156250Y-101600000D03*
%TD*%
D13*
%TO.C,K_Close1*%
X301148750Y-63500000D03*
X290988750Y-63500000D03*
D14*
X296068750Y-63500000D03*
%TD*%
D13*
%TO.C,K_Caps1*%
X70167500Y-82550000D03*
X60007500Y-82550000D03*
D14*
X65087500Y-82550000D03*
%TD*%
D13*
%TO.C,K_C1*%
X143986250Y-101600000D03*
X133826250Y-101600000D03*
D14*
X138906250Y-101600000D03*
%TD*%
D13*
%TO.C,K_Backslash1*%
X324961250Y-63500000D03*
X314801250Y-63500000D03*
D14*
X319881250Y-63500000D03*
%TD*%
%TO.C,K_Back1*%
X327025000Y-52705000D03*
X303212500Y-52705000D03*
D15*
X327025000Y-37465000D03*
X303212500Y-37465000D03*
D13*
X320198750Y-44450000D03*
X310038750Y-44450000D03*
D14*
X315118750Y-44450000D03*
%TD*%
D13*
%TO.C,K_B1*%
X182086250Y-101600000D03*
X171926250Y-101600000D03*
D14*
X177006250Y-101600000D03*
%TD*%
D13*
%TO.C,K_A1*%
X96361250Y-82550000D03*
X86201250Y-82550000D03*
D14*
X91281250Y-82550000D03*
%TD*%
D13*
%TO.C,K_9*%
X234473750Y-44450000D03*
X224313750Y-44450000D03*
D14*
X229393750Y-44450000D03*
%TD*%
D13*
%TO.C,K_8*%
X215423750Y-44450000D03*
X205263750Y-44450000D03*
D14*
X210343750Y-44450000D03*
%TD*%
D13*
%TO.C,K_7*%
X196373750Y-44450000D03*
X186213750Y-44450000D03*
D14*
X191293750Y-44450000D03*
%TD*%
D13*
%TO.C,K_6*%
X177323750Y-44450000D03*
X167163750Y-44450000D03*
D14*
X172243750Y-44450000D03*
%TD*%
D13*
%TO.C,K_5*%
X158273750Y-44450000D03*
X148113750Y-44450000D03*
D14*
X153193750Y-44450000D03*
%TD*%
D13*
%TO.C,K_4*%
X139223750Y-44450000D03*
X129063750Y-44450000D03*
D14*
X134143750Y-44450000D03*
%TD*%
D13*
%TO.C,K_3*%
X120173750Y-44450000D03*
X110013750Y-44450000D03*
D14*
X115093750Y-44450000D03*
%TD*%
D13*
%TO.C,K_2*%
X101123750Y-44450000D03*
X90963750Y-44450000D03*
D14*
X96043750Y-44450000D03*
%TD*%
D13*
%TO.C,K_1*%
X82073750Y-44450000D03*
X71913750Y-44450000D03*
D14*
X76993750Y-44450000D03*
%TD*%
D13*
%TO.C,K_0*%
X253523750Y-44450000D03*
X243363750Y-44450000D03*
D14*
X248443750Y-44450000D03*
%TD*%
D16*
%TO.C,D_Z1*%
X110331250Y-97948750D03*
D12*
X110331250Y-105568750D03*
%TD*%
D16*
%TO.C,D_Y1*%
X191293750Y-59848750D03*
D12*
X191293750Y-67468750D03*
%TD*%
D16*
%TO.C,D_X1*%
X129381250Y-97948750D03*
D12*
X129381250Y-105568750D03*
%TD*%
D16*
%TO.C,D_W1*%
X115093750Y-59848750D03*
D12*
X115093750Y-67468750D03*
%TD*%
D16*
%TO.C,D_V1*%
X167481250Y-97948750D03*
D12*
X167481250Y-105568750D03*
%TD*%
D16*
%TO.C,D_Up1*%
X338931250Y-87788750D03*
D12*
X338931250Y-80168750D03*
%TD*%
D16*
%TO.C,D_U1*%
X210343750Y-59848750D03*
D12*
X210343750Y-67468750D03*
%TD*%
D16*
%TO.C,D_Tab1*%
X72231250Y-59848750D03*
D12*
X72231250Y-67468750D03*
%TD*%
%TO.C,D_T1*%
X172243750Y-67468750D03*
D16*
X172243750Y-59848750D03*
%TD*%
%TO.C,D_Space1*%
X188912500Y-116998750D03*
D12*
X188912500Y-124618750D03*
%TD*%
D16*
%TO.C,D_Slash1*%
X281781250Y-97948750D03*
D12*
X281781250Y-105568750D03*
%TD*%
D16*
%TO.C,D_Semi1*%
X272256250Y-78898750D03*
D12*
X272256250Y-86518750D03*
%TD*%
D16*
%TO.C,D_S1*%
X119856250Y-78898750D03*
D12*
X119856250Y-86518750D03*
%TD*%
D16*
%TO.C,D_RShift1*%
X308768750Y-97948750D03*
D12*
X308768750Y-105568750D03*
%TD*%
D16*
%TO.C,D_Right1*%
X338931250Y-122555000D03*
D12*
X338931250Y-130175000D03*
%TD*%
D16*
%TO.C,D_RCtrl1*%
X290195000Y-111125000D03*
D12*
X282575000Y-111125000D03*
%TD*%
D16*
%TO.C,D_RAlt1*%
X257968750Y-116998750D03*
D12*
X257968750Y-124618750D03*
%TD*%
D16*
%TO.C,D_R1*%
X153193750Y-59848750D03*
D12*
X153193750Y-67468750D03*
%TD*%
D16*
%TO.C,D_Quote1*%
X291306250Y-78898750D03*
D12*
X291306250Y-86518750D03*
%TD*%
D16*
%TO.C,D_Q1*%
X96043750Y-59848750D03*
D12*
X96043750Y-67468750D03*
%TD*%
D16*
%TO.C,D_Plus1*%
X296068750Y-40798750D03*
D12*
X296068750Y-48418750D03*
%TD*%
D16*
%TO.C,D_P1*%
X267493750Y-59848750D03*
D12*
X267493750Y-67468750D03*
%TD*%
D16*
%TO.C,D_Open1*%
X286543750Y-59848750D03*
D12*
X286543750Y-67468750D03*
%TD*%
D16*
%TO.C,D_O1*%
X248443750Y-59848750D03*
D12*
X248443750Y-67468750D03*
%TD*%
D16*
%TO.C,D_N1*%
X205581250Y-97948750D03*
D12*
X205581250Y-105568750D03*
%TD*%
D16*
%TO.C,D_Minus1*%
X277018750Y-40798750D03*
D12*
X277018750Y-48418750D03*
%TD*%
%TO.C,D_M1*%
X224631250Y-105568750D03*
D16*
X224631250Y-97948750D03*
%TD*%
%TO.C,D_LWin1*%
X93662500Y-116998750D03*
D12*
X93662500Y-124618750D03*
%TD*%
D16*
%TO.C,D_LShift1*%
X88106250Y-97948750D03*
D12*
X88106250Y-105568750D03*
%TD*%
D16*
%TO.C,D_A1*%
X100806250Y-78898750D03*
D12*
X100806250Y-86518750D03*
%TD*%
D16*
%TO.C,D_Left1*%
X319881250Y-122555000D03*
D12*
X319881250Y-130175000D03*
%TD*%
D16*
%TO.C,D_LCtrl1*%
X69850000Y-116998750D03*
D12*
X69850000Y-124618750D03*
%TD*%
D16*
%TO.C,D_LAlt1*%
X117475000Y-116998750D03*
D12*
X117475000Y-124618750D03*
%TD*%
D16*
%TO.C,D_L1*%
X253206250Y-78898750D03*
D12*
X253206250Y-86518750D03*
%TD*%
D16*
%TO.C,D_K1*%
X234156250Y-78898750D03*
D12*
X234156250Y-86518750D03*
%TD*%
%TO.C,D_J1*%
X215106250Y-86518750D03*
D16*
X215106250Y-78898750D03*
%TD*%
D12*
%TO.C,D_Insert1*%
X338931250Y-48418750D03*
D16*
X338931250Y-40798750D03*
%TD*%
%TO.C,D_I1*%
X229393750Y-59848750D03*
D12*
X229393750Y-67468750D03*
%TD*%
%TO.C,D_Home1*%
X338931250Y-67468750D03*
D16*
X338931250Y-59848750D03*
%TD*%
%TO.C,D_H1*%
X196056250Y-78898750D03*
D12*
X196056250Y-86518750D03*
%TD*%
D16*
%TO.C,D_G1*%
X177006250Y-78898750D03*
D12*
X177006250Y-86518750D03*
%TD*%
D16*
%TO.C,D_Fn1*%
X277018750Y-116998750D03*
D12*
X277018750Y-124618750D03*
%TD*%
D16*
%TO.C,D_F1*%
X157956250Y-78898750D03*
D12*
X157956250Y-86518750D03*
%TD*%
D16*
%TO.C,D_Esc1*%
X67468750Y-40798750D03*
D12*
X67468750Y-48418750D03*
%TD*%
D16*
%TO.C,D_Enter1*%
X331787500Y-78898750D03*
D12*
X331787500Y-86518750D03*
%TD*%
%TO.C,D_End1*%
X356870000Y-73025000D03*
D16*
X349250000Y-73025000D03*
%TD*%
%TO.C,D_E1*%
X134143750Y-59848750D03*
D12*
X134143750Y-67468750D03*
%TD*%
D16*
%TO.C,D_Down1*%
X333057500Y-116681250D03*
D12*
X325437500Y-116681250D03*
%TD*%
D16*
%TO.C,D_Dot1*%
X262731250Y-97948750D03*
D12*
X262731250Y-105568750D03*
%TD*%
%TO.C,D_Del1*%
X357187500Y-92075000D03*
D16*
X349567500Y-92075000D03*
%TD*%
%TO.C,D_D1*%
X138906250Y-78898750D03*
D12*
X138906250Y-86518750D03*
%TD*%
D16*
%TO.C,D_Comma1*%
X243681250Y-97948750D03*
D12*
X243681250Y-105568750D03*
%TD*%
D16*
%TO.C,D_Close1*%
X305593750Y-59848750D03*
D12*
X305593750Y-67468750D03*
%TD*%
D16*
%TO.C,D_Caps1*%
X74612500Y-78898750D03*
D12*
X74612500Y-86518750D03*
%TD*%
D16*
%TO.C,D_C1*%
X148431250Y-97948750D03*
D12*
X148431250Y-105568750D03*
%TD*%
D16*
%TO.C,D_Backslash1*%
X331787500Y-59848750D03*
D12*
X331787500Y-67468750D03*
%TD*%
D16*
%TO.C,D_Back1*%
X331787500Y-40798750D03*
D12*
X331787500Y-48418750D03*
%TD*%
D16*
%TO.C,D_B1*%
X186531250Y-97948750D03*
D12*
X186531250Y-105568750D03*
%TD*%
%TO.C,D_9*%
X238918750Y-48418750D03*
D16*
X238918750Y-40798750D03*
%TD*%
%TO.C,D_8*%
X219868750Y-40798750D03*
D12*
X219868750Y-48418750D03*
%TD*%
%TO.C,D_7*%
X200818750Y-48418750D03*
D16*
X200818750Y-40798750D03*
%TD*%
%TO.C,D_6*%
X181768750Y-40798750D03*
D12*
X181768750Y-48418750D03*
%TD*%
D16*
%TO.C,D_5*%
X162718750Y-40798750D03*
D12*
X162718750Y-48418750D03*
%TD*%
%TO.C,D_4*%
X143668750Y-48418750D03*
D16*
X143668750Y-40798750D03*
%TD*%
D12*
%TO.C,D_3*%
X124618750Y-48418750D03*
D16*
X124618750Y-40798750D03*
%TD*%
%TO.C,D_2*%
X105568750Y-40798750D03*
D12*
X105568750Y-48418750D03*
%TD*%
D16*
%TO.C,D_1*%
X86518750Y-40798750D03*
D12*
X86518750Y-48418750D03*
%TD*%
D16*
%TO.C,D_0*%
X257968750Y-40798750D03*
D12*
X257968750Y-48418750D03*
%TD*%
M02*
