M48
; DRILL file {KiCad (5.1.12)-1} date 12/07/21 21:09:42
; FORMAT={-:-/ absolute / inch / decimal}
; #@! TF.CreationDate,2021-12-07T21:09:42+01:00
; #@! TF.GenerationSoftware,Kicad,Pcbnew,(5.1.12)-1
; #@! TF.FileFunction,Plated,1,2,PTH
FMAT,2
INCH
T1C0.0315
T2C0.0433
T3C0.0579
T4C0.0866
%
G90
G05
T1
X2.6562Y-1.6062
X2.6562Y-1.9062
X2.75Y-4.6063
X2.75Y-4.9062
X2.8438Y-2.3562
X2.8438Y-2.6562
X2.9375Y-3.1062
X2.9375Y-3.4062
X3.4062Y-1.6062
X3.4062Y-1.9062
X3.4688Y-3.8562
X3.4688Y-4.1562
X3.6875Y-4.6063
X3.6875Y-4.9062
X3.7812Y-2.3562
X3.7812Y-2.6562
X3.9688Y-3.1062
X3.9688Y-3.4062
X4.1562Y-1.6062
X4.1562Y-1.9062
X4.3438Y-3.8562
X4.3438Y-4.1562
X4.5312Y-2.3562
X4.5312Y-2.6562
X4.625Y-4.6063
X4.625Y-4.9062
X4.7188Y-3.1062
X4.7188Y-3.4062
X4.9062Y-1.6062
X4.9062Y-1.9062
X5.0938Y-3.8562
X5.0938Y-4.1562
X5.2812Y-2.3562
X5.2812Y-2.6562
X5.4688Y-3.1062
X5.4688Y-3.4062
X5.6562Y-1.6062
X5.6562Y-1.9062
X5.8438Y-3.8562
X5.8438Y-4.1562
X6.0312Y-2.3562
X6.0312Y-2.6562
X6.2188Y-3.1062
X6.2188Y-3.4062
X6.4062Y-1.6062
X6.4062Y-1.9062
X6.5938Y-3.8562
X6.5938Y-4.1562
X6.7812Y-2.3562
X6.7812Y-2.6562
X6.9688Y-3.1062
X6.9688Y-3.4062
X7.1562Y-1.6062
X7.1562Y-1.9062
X7.3438Y-3.8562
X7.3438Y-4.1562
X7.4375Y-4.6063
X7.4375Y-4.9062
X7.5312Y-2.3562
X7.5312Y-2.6562
X7.7188Y-3.1062
X7.7188Y-3.4062
X7.9062Y-1.6062
X7.9062Y-1.9062
X8.0938Y-3.8562
X8.0938Y-4.1562
X8.2812Y-2.3562
X8.2812Y-2.6562
X8.4688Y-3.1062
X8.4688Y-3.4062
X8.6562Y-1.6062
X8.6562Y-1.9062
X8.8438Y-3.8562
X8.8438Y-4.1562
X9.0312Y-2.3562
X9.0312Y-2.6562
X9.2188Y-3.1062
X9.2188Y-3.4062
X9.4062Y-1.6062
X9.4062Y-1.9062
X9.5938Y-3.8562
X9.5938Y-4.1562
X9.7812Y-2.3562
X9.7812Y-2.6562
X9.9688Y-3.1062
X9.9688Y-3.4062
X10.1562Y-1.6062
X10.1562Y-1.9062
X10.1562Y-4.6063
X10.1562Y-4.9062
X10.3438Y-3.8562
X10.3438Y-4.1562
X10.5312Y-2.3562
X10.5312Y-2.6562
X10.7188Y-3.1062
X10.7188Y-3.4062
X10.9062Y-1.6062
X10.9062Y-1.9062
X10.9062Y-4.6063
X10.9062Y-4.9062
X11.0938Y-3.8562
X11.0938Y-4.1562
X11.125Y-4.375
X11.2812Y-2.3562
X11.2812Y-2.6562
X11.425Y-4.375
X11.4688Y-3.1062
X11.4688Y-3.4062
X11.6562Y-1.6062
X11.6562Y-1.9062
X12.0312Y-2.3562
X12.0312Y-2.6562
X12.1562Y-3.8562
X12.1562Y-4.1562
X12.5938Y-4.825
X12.5938Y-5.125
X12.8125Y-4.5938
X13.0625Y-1.6062
X13.0625Y-1.9062
X13.0625Y-2.3562
X13.0625Y-2.6562
X13.0625Y-3.1062
X13.0625Y-3.4062
X13.1125Y-4.5938
X13.3438Y-1.6062
X13.3438Y-1.9062
X13.3438Y-2.3562
X13.3438Y-2.6562
X13.3438Y-3.1562
X13.3438Y-3.4562
X13.3438Y-4.825
X13.3438Y-5.125
X13.75Y-2.875
X13.7625Y-3.625
X14.05Y-2.875
X14.0625Y-3.625
T2
X11.8031Y-1.6634
X11.8031Y-1.8406
X12.0591Y-1.6634
X12.0591Y-1.8406
X13.6062Y-1.5125
X13.6062Y-1.6125
X13.6062Y-1.7125
X13.6062Y-1.8125
X13.6062Y-1.9125
X13.6062Y-2.0125
X13.6062Y-2.1125
X13.6062Y-2.2125
X13.6062Y-2.3125
X13.6062Y-2.4125
X13.6062Y-2.5125
X13.6062Y-2.6125
X14.2062Y-1.5125
X14.2062Y-1.6125
X14.2062Y-1.7125
X14.2062Y-1.8125
X14.2062Y-1.9125
X14.2062Y-2.0125
X14.2062Y-2.1125
X14.2062Y-2.2125
X14.2062Y-2.3125
X14.2062Y-2.4125
X14.2062Y-2.5125
X14.2062Y-2.6125
T3
X2.1313Y-1.65
X2.225Y-4.65
X2.3188Y-2.4
X2.3813Y-1.55
X2.4125Y-3.15
X2.475Y-4.55
X2.5688Y-2.3
X2.6Y-3.9
X2.6625Y-3.05
X2.85Y-3.8
X2.8813Y-1.65
X3.1313Y-1.55
X3.1625Y-4.65
X3.2563Y-2.4
X3.4125Y-4.55
X3.4438Y-3.15
X3.5063Y-2.3
X3.6313Y-1.65
X3.6938Y-3.05
X3.8188Y-3.9
X3.8813Y-1.55
X4.0062Y-2.4
X4.0687Y-3.8
X4.1Y-4.65
X4.1937Y-3.15
X4.2562Y-2.3
X4.35Y-4.55
X4.3812Y-1.65
X4.4437Y-3.05
X4.5687Y-3.9
X4.6312Y-1.55
X4.7562Y-2.4
X4.8187Y-3.8
X4.9437Y-3.15
X5.0062Y-2.3
X5.1312Y-1.65
X5.1937Y-3.05
X5.3187Y-3.9
X5.3812Y-1.55
X5.5062Y-2.4
X5.5687Y-3.8
X5.6937Y-3.15
X5.7562Y-2.3
X5.8812Y-1.65
X5.9437Y-3.05
X6.0687Y-3.9
X6.1312Y-1.55
X6.2562Y-2.4
X6.3187Y-3.8
X6.4437Y-3.15
X6.5062Y-2.3
X6.6312Y-1.65
X6.6937Y-3.05
X6.8187Y-3.9
X6.8812Y-1.55
X6.9125Y-4.65
X7.0062Y-2.4
X7.0687Y-3.8
X7.1625Y-4.55
X7.1937Y-3.15
X7.2562Y-2.3
X7.3812Y-1.65
X7.4437Y-3.05
X7.5687Y-3.9
X7.6312Y-1.55
X7.7562Y-2.4
X7.8187Y-3.8
X7.9437Y-3.15
X8.0062Y-2.3
X8.1312Y-1.65
X8.1937Y-3.05
X8.3187Y-3.9
X8.3812Y-1.55
X8.5062Y-2.4
X8.5687Y-3.8
X8.6937Y-3.15
X8.7562Y-2.3
X8.8812Y-1.65
X8.9437Y-3.05
X9.0687Y-3.9
X9.1312Y-1.55
X9.2562Y-2.4
X9.3187Y-3.8
X9.4437Y-3.15
X9.5062Y-2.3
X9.6312Y-1.65
X9.6312Y-4.65
X9.6937Y-3.05
X9.8187Y-3.9
X9.8812Y-1.55
X9.8812Y-4.55
X10.0062Y-2.4
X10.0687Y-3.8
X10.1937Y-3.15
X10.2562Y-2.3
X10.3812Y-1.65
X10.3812Y-4.65
X10.4437Y-3.05
X10.5687Y-3.9
X10.6312Y-1.55
X10.6312Y-4.55
X10.7562Y-2.4
X10.8187Y-3.8
X10.9437Y-3.15
X11.0062Y-2.3
X11.1312Y-1.65
X11.1312Y-4.65
X11.1937Y-3.05
X11.3812Y-1.55
X11.3812Y-4.55
X11.5062Y-2.4
X11.6Y-3.9
X11.7562Y-2.3
X11.85Y-3.8
X12.0687Y-4.8687
X12.1625Y-3.15
X12.2562Y-1.65
X12.3187Y-4.7687
X12.4125Y-3.05
X12.4437Y-2.4
X12.5062Y-1.55
X12.6937Y-2.3
X12.8187Y-4.1187
X12.8187Y-4.8687
X13.0687Y-4.0187
X13.0687Y-4.7687
X13.5687Y-4.8687
X13.7562Y-1.65
X13.7562Y-2.4
X13.7562Y-3.15
X13.7562Y-3.9
X13.8187Y-4.7687
X14.0062Y-1.55
X14.0062Y-2.3
X14.0062Y-3.05
X14.0062Y-3.8
T4
X1.7812Y-1.5625
X1.7812Y-5.1562
X3.1562Y-3.25
X7.9688Y-2.125
X7.9688Y-4.75
X11.625Y-3.25
X14.4062Y-1.5625
X14.4062Y-5.1562
T0
M30
